<svg width="26" height="30" viewBox="0 0 26 30" fill="none" xmlns="http://www.w3.org/2000/svg">
<path fill-rule="evenodd" clip-rule="evenodd" d="M3.66667 0.666618C2.69421 0.666618 1.76158 1.05293 1.07394 1.74056C0.386308 2.42819 0 3.36082 0 4.33328V25.6666C0 26.6391 0.386308 27.5717 1.07394 28.2593C1.76157 28.947 2.69421 29.3333 3.66667 29.3333H17C17.5523 29.3333 18 28.8856 18 28.3333C18 27.781 17.5523 27.3333 17 27.3333H3.66667C3.22464 27.3333 2.80072 27.1577 2.48815 26.8451C2.17559 26.5326 2 26.1086 2 25.6666V4.33328C2 3.89126 2.17559 3.46733 2.48816 3.15477C2.80072 2.84221 3.22464 2.66662 3.66667 2.66662H19.6667C20.5871 2.66662 21.3333 3.41281 21.3333 4.33328V4.80431C20.7366 4.97349 20.187 5.29289 19.7406 5.73927C19.053 6.4269 18.6667 7.35953 18.6667 8.33199V22.5542C18.6667 22.7355 18.7159 22.9133 18.8092 23.0687L21.4758 27.5132C21.6566 27.8144 21.9821 27.9987 22.3333 27.9987C22.6846 27.9987 23.0101 27.8144 23.1908 27.5132L25.8575 23.0687C25.9507 22.9133 26 22.7355 26 22.5542L26 8.33199C26 7.35953 25.6137 6.4269 24.9261 5.73927C24.4797 5.29289 23.9301 4.97349 23.3333 4.80431V4.33328C23.3333 2.30824 21.6917 0.666618 19.6667 0.666618H3.66667ZM22.2929 6.66581C22.3063 6.66635 22.3198 6.66662 22.3333 6.66662C22.3469 6.66662 22.3604 6.66635 22.3738 6.66581C22.8012 6.67618 23.2088 6.85047 23.5118 7.15348C23.8244 7.46604 24 7.88996 24 8.33199L24 22.2772L22.3333 25.055L20.6667 22.2772V8.33199C20.6667 7.88996 20.8423 7.46604 21.1548 7.15348C21.4578 6.85047 21.8655 6.67618 22.2929 6.66581ZM5.33333 17.6666C5.33333 17.1143 5.78105 16.6666 6.33333 16.6666H14.3333C14.8856 16.6666 15.3333 17.1143 15.3333 17.6666C15.3333 18.2189 14.8856 18.6666 14.3333 18.6666H6.33333C5.78105 18.6666 5.33333 18.2189 5.33333 17.6666ZM6.33333 11.332C5.78105 11.332 5.33333 11.7797 5.33333 12.332C5.33333 12.8843 5.78105 13.332 6.33333 13.332H9C9.55228 13.332 10 12.8843 10 12.332C10 11.7797 9.55228 11.332 9 11.332H6.33333ZM5.33333 6.99866C5.33333 6.44637 5.78105 5.99866 6.33333 5.99866H14.3333C14.8856 5.99866 15.3333 6.44637 15.3333 6.99866C15.3333 7.55094 14.8856 7.99866 14.3333 7.99866H6.33333C5.78105 7.99866 5.33333 7.55094 5.33333 6.99866ZM6.33333 22C5.78105 22 5.33333 22.4477 5.33333 23C5.33333 23.5522 5.78105 24 6.33333 24H11.6667C12.219 24 12.6667 23.5522 12.6667 23C12.6667 22.4477 12.219 22 11.6667 22H6.33333Z" fill="white"/>
</svg>
