<svg width="14" height="8" viewBox="0 0 14 8" fill="none" xmlns="http://www.w3.org/2000/svg">
<path fill-rule="evenodd" clip-rule="evenodd" d="M6.6838 0.0520491C6.88907 -0.0163731 7.11099 -0.0163731 7.31626 0.0520491L13.3163 2.05205C13.8402 2.2267 14.1234 2.79302 13.9487 3.31696C13.7741 3.8409 13.2077 4.12406 12.6838 3.94942L7.00003 2.05483L1.31625 3.94942C0.792312 4.12406 0.225992 3.8409 0.0513439 3.31696C-0.123304 2.79302 0.159856 2.2267 0.683799 2.05205L6.6838 0.0520491ZM0.683799 6.05205L6.6838 4.05205C6.88907 3.98363 7.11099 3.98363 7.31626 4.05205L13.3163 6.05205C13.8402 6.2267 14.1234 6.79302 13.9487 7.31696C13.7741 7.8409 13.2077 8.12406 12.6838 7.94942L7.00003 6.05482L1.31625 7.94942C0.792312 8.12406 0.225992 7.8409 0.0513439 7.31696C-0.123304 6.79302 0.159856 6.2267 0.683799 6.05205Z" fill="#FF3031"/>
</svg>
